<?xml version="1.0" encoding="utf-8"?>
<!-- Generator: Adobe Illustrator 27.5.0, SVG Export Plug-In . SVG Version: 6.00 Build 0)  -->
<svg version="1.1" xmlns="http://www.w3.org/2000/svg" xmlns:xlink="http://www.w3.org/1999/xlink" x="0px" y="0px"
  viewBox="0 0 750 500" style="enable-background:new 0 0 750 500;" xml:space="preserve">
  <g id="BACKGROUND">
    <rect style="fill:transparent;" width="750" height="500" />
  </g>
  <g id="OBJECTS">
    <rect x="115.675" y="348.961" style="fill:#555555;" width="16.878" height="16.878" />
    <rect x="115.675" y="316.661" style="fill:#555555;" width="16.878" height="16.878" />
    <rect x="634.587" y="316.661" style="fill:#555555;" width="16.878" height="16.878" />
    <rect x="630.183" y="121.586" style="fill:#555555;" width="16.878" height="16.878" />
    <rect x="630.183" y="147.19" style="fill:#555555;" width="16.878" height="16.878" />
    <rect x="273.83" y="401.798" style="fill:none;stroke:#555555;stroke-miterlimit:10;" width="22.716"
      height="22.716" />
    <rect x="573.218" y="322.734" style="fill:none;stroke:#555555;stroke-miterlimit:10;" width="22.715"
      height="22.715" />
    <rect x="211.43" y="256.947" style="fill:#555555;" width="10.495" height="10.495" />
    <rect x="634.665" y="256.947" style="fill:#555555;" width="10.495" height="10.495" />
    <rect x="385.314" y="225.077" style="fill:#555555;" width="10.495" height="10.495" />
    <rect x="533.17" y="62.397" style="fill:#555555;" width="10.495" height="10.495" />
    <rect x="586.649" y="7.168" style="fill:none;stroke:#555555;stroke-miterlimit:10;" width="10.495" height="10.495" />
    <rect x="178.05" y="7.168" style="fill:none;stroke:#555555;stroke-miterlimit:10;" width="10.495" height="10.495" />
    <rect x="385.314" y="336.821" style="fill:none;stroke:#555555;stroke-miterlimit:10;" width="10.495"
      height="10.495" />
    <rect x="259.633" y="186.873" style="fill:#555555;" width="8.79" height="8.79" />
    <rect x="342.154" y="412.793" style="fill:#555555;" width="8.79" height="8.79" />
    <rect x="342.154" y="390.069" style="fill:#555555;" width="8.79" height="8.79" />
    <rect x="342.154" y="178.317" style="fill:#555555;" width="8.79" height="8.79" />
    <rect x="386.277" y="60.107" style="fill:#555555;" width="8.79" height="8.79" />
    <rect x="535.076" y="153.909" style="fill:#555555;" width="8.79" height="8.79" />
    <rect x="457.932" y="24.235" style="fill:#555555;" width="8.12" height="8.12" />
    <rect x="689.061" y="202.005" style="fill:#555555;" width="8.79" height="8.79" />
    <rect x="689.061" y="406.539" style="fill:#555555;" width="8.79" height="8.79" />
    <rect x="634.602" y="391.159" style="fill:none;stroke:#555555;stroke-miterlimit:10;" width="14.428"
      height="14.428" />
    <rect x="343.467" y="20.955" style="fill:#555555;" width="8.79" height="8.79" />
    <rect x="259.844" y="25.094" style="fill:#555555;" width="8.79" height="8.79" />
    <rect x="456.739" y="337.814" style="fill:#555555;" width="13.551" height="13.552" />
    <rect x="456.739" y="433.136" style="fill:#555555;" width="13.551" height="13.551" />
    <rect x="570.602" y="435.618" style="fill:#555555;" width="8.807" height="8.807" />
    <rect x="178.929" y="434.556" style="fill:#555555;" width="13.551" height="13.552" />
    <rect x="132.741" y="458.513" style="fill:none;stroke:#555555;stroke-miterlimit:10;" width="9" height="9" />
    <rect x="456.739" y="385.272" style="fill:none;stroke:#555555;stroke-miterlimit:10;" width="13.551"
      height="13.551" />
    <rect x="178.929" y="385.272" style="fill:none;stroke:#555555;stroke-miterlimit:10;" width="13.551"
      height="13.551" />

    <rect x="259.633" y="202.102" style="fill:none;stroke:#555555;stroke-width:0.5;stroke-miterlimit:10;" width="8.79"
      height="8.79" />

    <rect x="387.841" y="83.616" style="fill:none;stroke:#555555;stroke-width:0.5;stroke-miterlimit:10;" width="8.79"
      height="8.79" />

    <rect x="647.829" y="56.958" style="fill:none;stroke:#555555;stroke-width:0.5;stroke-miterlimit:10;" width="8.79"
      height="8.79" />

    <rect x="698.427" y="21.615" style="fill:none;stroke:#555555;stroke-width:0.3537;stroke-miterlimit:10;"
      width="6.218" height="6.218" />

    <rect x="532.092" y="293.938" style="fill:none;stroke:#555555;stroke-width:0.5;stroke-miterlimit:10;" width="8.79"
      height="8.79" />

    <rect x="463.432" y="218.949" style="fill:none;stroke:#555555;stroke-width:0.5;stroke-miterlimit:10;" width="8.79"
      height="8.79" />

    <rect x="345.184" y="135.496" style="fill:none;stroke:#555555;stroke-width:0.2769;stroke-miterlimit:10;"
      width="4.868" height="4.868" />

    <rect x="45.73" y="135.496" style="fill:none;stroke:#555555;stroke-width:0.2769;stroke-miterlimit:10;" width="4.868"
      height="4.868" />

    <rect x="89.69" y="41.253" style="fill:none;stroke:#555555;stroke-width:0.2769;stroke-miterlimit:10;" width="4.868"
      height="4.868" />

    <rect x="344.115" y="452.087" style="fill:none;stroke:#555555;stroke-width:0.2769;stroke-miterlimit:10;"
      width="4.868" height="4.868" />

    <rect x="403.732" y="482.787" style="fill:none;stroke:#555555;stroke-width:0.2769;stroke-miterlimit:10;"
      width="4.868" height="4.868" />

    <rect x="261.805" y="135.496" style="fill:none;stroke:#555555;stroke-width:0.2769;stroke-miterlimit:10;"
      width="4.868" height="4.868" />

    <rect x="283.702" y="327.105" style="fill:none;stroke:#555555;stroke-width:0.2769;stroke-miterlimit:10;"
      width="4.868" height="4.868" />

    <rect x="230.173" y="302.944" style="fill:none;stroke:#555555;stroke-width:0.5;stroke-miterlimit:10;" width="8.79"
      height="8.79" />

    <rect x="71.57" y="310.047" style="fill:none;stroke:#555555;stroke-width:0.5;stroke-miterlimit:10;" width="8.79"
      height="8.79" />
    <rect x="209.986" y="90.016" style="fill:none;stroke:#555555;stroke-miterlimit:10;" width="13.382"
      height="13.382" />
    <rect x="74.799" y="90.016" style="fill:none;stroke:#555555;stroke-miterlimit:10;" width="13.382" height="13.382" />
    <rect x="532.331" y="220.028" style="fill:none;stroke:#555555;stroke-miterlimit:10;" width="13.382"
      height="13.382" />
    <rect x="99.32" y="143.214" style="fill:#555555;" width="11.401" height="11.401" />
    <rect x="461.785" y="143.214" style="fill:#555555;" width="11.401" height="11.401" />
    <rect x="461.785" y="161.815" style="fill:#555555;" width="11.401" height="11.401" />
    <rect x="123.938" y="222.549" style="fill:#555555;" width="8.785" height="8.785" />
    <rect x="42.305" y="230.792" style="fill:#555555;" width="8.785" height="8.785" />
    <rect x="136.896" y="90.876" style="fill:#555555;" width="6.722" height="6.722" />
  </g>
</svg>