<?xml version="1.0" standalone="no"?>
<!DOCTYPE svg PUBLIC "-//W3C//DTD SVG 20010904//EN" "http://www.w3.org/TR/2001/REC-SVG-20010904/DTD/svg10.dtd">
<svg version="1.0" xmlns="http://www.w3.org/2000/svg" width="1280.000000pt" height="1048.000000pt"
  viewBox="0 0 1280.000000 1048.000000" preserveAspectRatio="xMidYMid meet">
  <metadata>
    Created by potrace 1.15, written by Peter Selinger 2001-2017
  </metadata>
  <g transform="translate(0.000000,1048.000000) scale(0.100000,-0.100000)" fill="#ffffff" stroke="none">
    <path d="M5351 10463 c-25 -21 -40 -69 -32 -100 16 -61 84 -85 115 -41 23 32
20 100 -5 132 -24 30 -48 33 -78 9z" />
    <path d="M6131 10462 c-27 -51 -4 -148 37 -159 20 -5 31 0 54 26 17 19 28 43
28 61 0 61 -94 118 -119 72z" />
    <path d="M6955 10472 c-28 -5 -45 -31 -45 -68 0 -38 16 -85 33 -96 43 -27 97
18 97 81 0 60 -34 93 -85 83z" />
    <path d="M7296 10459 c-34 -27 -37 -94 -6 -127 27 -29 74 -29 94 0 37 52 1
148 -53 148 -5 0 -20 -9 -35 -21z" />
    <path d="M7741 10463 c-34 -28 -38 -86 -10 -128 33 -48 46 -50 85 -11 35 35
41 57 25 99 -21 55 -61 71 -100 40z" />
    <path d="M5730 10402 c0 -46 69 -66 84 -25 10 24 -13 43 -50 43 -26 0 -34 -4
-34 -18z" />
    <path d="M6542 10393 c4 -36 41 -44 58 -13 15 27 5 40 -31 40 -27 0 -30 -3
-27 -27z" />
    <path d="M4371 10281 c-19 -12 -25 -91 -9 -121 19 -36 61 -38 94 -5 22 22 26
33 21 66 -3 22 -11 46 -17 54 -14 16 -67 20 -89 6z" />
    <path d="M5161 10281 c-20 -13 -21 -112 -2 -134 8 -11 28 -17 52 -17 33 0 41
4 49 26 18 46 12 101 -12 118 -25 18 -65 21 -87 7z" />
    <path d="M5513 10275 c-43 -30 -37 -99 11 -131 49 -32 96 4 98 74 2 61 -58 92
-109 57z" />
    <path d="M6310 10275 c-6 -8 -14 -32 -17 -54 -5 -33 -1 -44 20 -65 28 -28 65
-34 85 -14 18 18 15 113 -4 132 -19 20 -68 21 -84 1z" />
    <path d="M7101 10276 c-19 -22 -17 -90 2 -120 23 -34 78 -37 101 -4 24 34 20
90 -7 116 -27 25 -79 29 -96 8z" />
    <path d="M7901 10264 c-43 -55 -17 -134 43 -134 44 0 71 30 71 80 0 75 -72
108 -114 54z" />
    <path d="M8268 10279 c-25 -14 -25 -110 -1 -134 20 -20 72 -13 91 12 19 26 15
97 -6 116 -21 19 -58 22 -84 6z" />
    <path d="M8704 10269 c-28 -31 -25 -96 5 -120 32 -26 57 -24 88 7 21 21 24 32
20 61 -12 69 -72 97 -113 52z" />
    <path d="M4770 10222 c0 -54 40 -70 60 -23 15 37 7 51 -31 51 -25 0 -29 -4
-29 -28z" />
    <path d="M5917 10236 c-7 -18 16 -61 33 -61 17 0 40 43 33 61 -3 8 -18 14 -33
14 -15 0 -30 -6 -33 -14z" />
    <path d="M6714 10235 c-8 -19 14 -65 31 -65 19 0 47 37 43 57 -4 25 -65 31
-74 8z" />
    <path d="M7504 10239 c-9 -15 15 -57 38 -65 37 -11 64 36 36 64 -15 15 -65 16
-74 1z" />
    <path d="M3742 10097 c-29 -31 -30 -95 -1 -131 25 -32 50 -33 85 -3 21 19 27
32 27 67 0 35 -6 48 -27 67 -34 29 -57 29 -84 0z" />
    <path d="M8493 10063 c-30 -6 -29 -18 2 -49 20 -20 29 -23 44 -14 32 17 36 32
11 52 -12 10 -25 17 -29 17 -3 -1 -16 -4 -28 -6z" />
    <path d="M7317 10043 c-15 -14 -5 -46 38 -127 25 -47 45 -93 45 -101 0 -9 -12
-20 -27 -26 -54 -20 -169 13 -503 148 -170 69 -251 97 -294 101 l-59 5 6 -42
c3 -23 19 -63 36 -90 61 -95 44 -94 -181 13 -188 90 -247 112 -272 103 -13 -5
-9 -20 24 -93 22 -47 40 -88 40 -90 0 -11 -111 43 -203 100 -119 74 -167 96
-207 96 -54 0 -41 -75 26 -157 l38 -46 -66 7 c-80 8 -142 29 -305 102 -68 30
-128 54 -133 52 -5 -2 7 -36 26 -77 19 -40 34 -75 34 -76 0 -2 -143 -5 -317
-7 l-318 -4 -78 -32 c-106 -44 -159 -43 -256 3 -40 19 -79 35 -86 35 -8 0 -30
-16 -49 -35 -33 -32 -40 -35 -96 -35 -45 0 -82 8 -141 31 -44 18 -82 29 -85
26 -11 -11 15 -78 46 -117 l32 -40 -69 0 c-78 -1 -163 -19 -388 -83 -88 -25
-172 -48 -187 -51 -18 -4 -32 -18 -45 -43 -14 -31 -33 -45 -93 -76 -112 -56
-222 -88 -322 -94 -76 -5 -92 -3 -129 16 -40 21 -43 21 -52 5 -26 -45 -178
-155 -387 -279 -142 -84 -227 -125 -260 -125 -14 0 -51 14 -83 31 -32 16 -62
29 -68 27 -7 -2 14 -53 59 -140 2 -3 -43 -30 -100 -59 -140 -72 -278 -166
-433 -295 -326 -272 -1028 -1034 -1054 -1144 -4 -19 -20 -107 -34 -195 -15
-88 -47 -268 -71 -400 -100 -543 -109 -790 -41 -1160 115 -621 435 -1165 979
-1663 260 -238 443 -383 594 -469 293 -168 380 -247 369 -339 -2 -24 -4 -44
-2 -44 1 0 26 13 56 30 73 40 118 39 205 -4 120 -60 282 -229 433 -450 55 -81
72 -116 55 -116 -3 0 -27 9 -54 21 -110 47 -126 5 -53 -139 l48 -96 0 -135
c-1 -96 -6 -155 -18 -201 -18 -67 -131 -300 -337 -695 -66 -126 -133 -267
-149 -312 -53 -143 -58 -291 -14 -351 33 -45 117 -89 194 -102 45 -8 157 -10
326 -7 l258 4 190 77 c266 108 532 196 614 203 l66 6 54 -46 c79 -67 159 -99
162 -64 4 43 -14 86 -68 156 l-34 45 40 40 41 40 37 -36 c71 -69 110 -69 236
1 l75 41 94 -45 c51 -25 111 -48 132 -52 36 -6 39 -4 31 13 -4 10 -21 56 -37
101 -23 65 -27 87 -18 103 18 33 70 26 142 -20 45 -29 71 -40 93 -38 44 4 43
31 -10 133 -25 49 -45 99 -45 112 0 32 31 30 83 -6 50 -34 102 -61 117 -61 15
0 264 243 367 359 80 90 123 154 123 184 0 8 -12 31 -26 52 l-25 38 83 -5
c107 -6 113 -4 139 40 12 20 29 43 37 49 27 22 139 15 217 -13 39 -14 79 -27
90 -27 33 -3 28 33 -15 103 -39 64 -39 64 -22 94 9 16 22 31 28 33 6 2 53 -31
105 -73 113 -92 186 -140 259 -171 63 -26 108 -29 116 -9 3 8 -15 62 -41 121
-25 58 -43 110 -40 115 11 18 44 10 118 -29 40 -21 87 -42 104 -45 27 -6 31
-4 36 22 8 41 -8 103 -48 182 -19 38 -35 74 -35 80 0 19 47 10 81 -15 157
-115 409 -257 409 -231 0 2 -11 34 -25 70 -27 73 -32 137 -12 155 23 18 110
-11 169 -57 29 -22 87 -68 128 -102 113 -91 154 -73 80 36 -42 62 -51 106 -29
146 11 20 17 20 128 14 l116 -7 73 36 c90 43 125 44 202 5 74 -37 170 -64 184
-50 11 11 -6 75 -35 131 -10 20 -15 39 -12 43 4 3 35 6 69 6 88 0 147 15 237
58 75 37 78 37 94 20 40 -45 106 -78 153 -78 48 0 53 2 151 77 60 46 86 43
159 -20 42 -37 136 -81 151 -71 16 9 5 54 -37 147 -34 75 -36 83 -23 106 21
38 38 36 91 -8 53 -44 86 -55 120 -42 13 5 80 51 149 102 165 123 249 179 270
179 9 0 47 -25 84 -56 55 -45 74 -54 99 -52 28 3 31 7 34 40 2 27 -7 55 -34
108 -29 56 -36 75 -27 88 19 30 43 24 161 -41 124 -68 170 -87 210 -87 l24 0
-32 36 c-51 59 -55 80 -24 128 33 51 363 381 423 425 24 17 50 31 56 31 7 0
41 -19 75 -42 34 -22 79 -47 99 -54 31 -11 38 -11 48 3 16 21 8 53 -35 136
-28 53 -34 72 -25 85 17 28 40 25 113 -12 83 -43 140 -49 140 -13 0 12 -12 42
-25 67 -77 140 -78 151 -28 171 23 9 43 6 116 -19 l87 -29 0 31 c0 17 -21 75
-47 129 l-47 99 34 29 c93 76 138 76 179 -1 13 -25 35 -65 48 -88 l25 -44 30
29 c54 50 55 67 7 160 -46 91 -51 124 -24 153 26 29 44 25 121 -25 59 -39 114
-58 114 -39 0 13 -28 57 -116 180 -52 72 -101 150 -109 174 -14 39 -14 46 0
67 27 41 43 33 188 -104 103 -97 182 -153 216 -153 23 0 23 2 17 47 -8 61 -34
105 -157 268 -79 105 -100 138 -89 145 20 12 63 2 154 -36 44 -19 82 -32 84
-29 8 8 -18 96 -48 163 -17 35 -30 78 -30 95 0 16 16 64 35 107 46 102 47 151
4 203 -35 43 -34 64 6 112 l24 30 33 -31 c49 -45 89 -71 126 -79 43 -9 51 12
27 79 -41 116 -109 226 -201 325 l-56 61 142 0 141 0 -7 23 c-14 48 -37 79
-131 182 -137 150 -160 182 -146 203 18 28 73 19 141 -22 34 -22 75 -39 94
-39 28 -2 33 2 36 23 3 30 -40 101 -121 197 -31 37 -81 108 -111 157 l-53 89
44 94 c24 51 45 107 45 123 1 37 -31 85 -131 192 -139 151 -151 166 -144 185
3 10 25 60 49 110 l43 93 -27 7 c-31 7 -96 -9 -175 -44 -31 -14 -60 -23 -63
-20 -9 9 17 89 52 159 39 77 43 119 14 148 -28 28 -72 25 -155 -11 -71 -30
-155 -48 -155 -33 0 4 21 52 46 106 31 66 44 106 40 121 -6 26 -370 414 -487
519 -41 37 -82 68 -93 68 -10 0 -61 -18 -112 -41 -52 -23 -101 -38 -110 -35
-13 5 -15 20 -13 84 4 73 6 80 43 125 45 55 44 87 -3 107 -34 14 -61 7 -168
-39 -46 -20 -88 -31 -119 -31 -44 0 -50 4 -118 70 -39 38 -92 78 -116 89 -40
17 -180 46 -265 53 l-30 3 -3 118 c-1 65 -6 117 -10 115 -4 -2 -38 -19 -76
-37 -76 -39 -125 -44 -155 -17 -34 31 -32 53 10 102 21 25 39 49 39 54 0 9
-29 14 -188 31 -178 18 -321 69 -514 182 -158 93 -280 147 -330 147 -10 0 -37
-17 -61 -38 -57 -52 -88 -72 -110 -72 -10 0 -44 24 -75 54 -67 63 -209 169
-265 198 l-40 20 -40 -29 c-22 -15 -40 -32 -40 -38 0 -5 27 -26 59 -45 95 -59
80 -84 -34 -56 -81 20 -131 53 -277 183 -146 129 -184 159 -236 183 -47 21
-62 24 -72 13z m-212 -703 c280 -6 463 -14 525 -24 526 -80 1006 -221 1490
-438 405 -182 728 -388 1075 -687 135 -116 507 -483 612 -603 200 -230 408
-601 506 -903 59 -180 80 -330 81 -570 1 -500 -117 -939 -346 -1291 -332 -510
-746 -869 -1383 -1200 -523 -271 -1132 -477 -1870 -633 -708 -149 -1228 -190
-2391 -191 l-480 0 -31 -33 c-44 -45 -114 -162 -228 -377 -54 -102 -135 -256
-182 -343 -158 -300 -251 -434 -418 -606 -142 -146 -249 -226 -410 -306 -218
-108 -395 -155 -590 -155 l-102 0 4 33 c19 175 53 302 204 772 56 171 117 371
137 445 36 134 36 137 36 330 -1 176 -3 204 -26 291 -46 169 -112 274 -270
425 -186 177 -373 298 -878 569 -427 229 -554 308 -742 457 -440 349 -724 826
-798 1340 -32 214 -29 704 5 904 110 649 542 1259 1216 1717 597 405 1436 726
2414 922 421 84 873 142 1200 154 289 11 1141 11 1640 1z m3675 -937 c0 -10
-72 -83 -82 -83 -11 0 -10 48 2 71 8 13 21 19 45 19 19 0 35 -3 35 -7z m235
-253 c100 -98 150 -170 119 -170 -25 0 -234 214 -234 240 0 11 5 20 11 20 7 0
53 -41 104 -90z m604 -852 c31 -33 36 -80 15 -125 -11 -21 -27 -39 -37 -41
-25 -5 -64 23 -83 59 -19 37 -6 78 34 109 32 26 46 25 71 -2z m127 -275 c8
-32 -6 -57 -34 -61 -26 -4 -46 30 -38 64 5 19 13 24 36 24 24 0 31 -5 36 -27z
m-3 -1664 c14 -23 0 -69 -21 -69 -10 0 -23 5 -30 12 -13 13 -16 60 -5 72 12
11 45 2 56 -15z m-409 -755 c19 -7 21 -57 4 -72 -17 -13 -56 2 -65 24 -4 11 2
24 16 36 26 21 24 20 45 12z m-161 -197 c20 -14 32 -74 23 -110 -5 -22 -47
-47 -77 -47 -40 0 -53 99 -18 144 22 28 46 33 72 13z m-611 -649 c9 -15 11
-99 2 -122 -10 -25 -61 -20 -91 10 -22 22 -24 31 -19 67 9 57 23 70 65 63 19
-3 38 -11 43 -18z m-192 -163 c33 -17 46 -51 35 -92 -17 -70 -63 -94 -100 -53
-22 24 -32 109 -16 139 14 25 41 27 81 6z m-212 -246 c2 -15 -5 -32 -17 -43
-18 -16 -23 -17 -37 -5 -20 16 -36 57 -28 70 3 6 22 9 42 7 31 -3 37 -7 40
-29z m-568 -124 c47 -50 20 -155 -40 -155 -44 0 -70 31 -70 84 0 83 61 123
110 71z m-222 -307 c-8 -17 -58 -26 -58 -11 0 4 12 20 27 35 25 26 28 27 34
11 4 -10 2 -26 -3 -35z m-580 -154 c4 -44 -20 -62 -53 -40 -29 19 -31 33 -8
58 26 29 57 19 61 -18z m-1026 -229 c-2 -11 -10 -26 -18 -34 -12 -13 -17 -12
-39 9 -25 23 -25 25 -8 38 27 20 69 12 65 -13z m-1364 -127 c7 -7 12 -37 12
-68 0 -64 -11 -80 -56 -80 -39 0 -54 17 -61 69 -8 56 16 91 60 91 18 0 38 -5
45 -12z m-968 -628 c24 -24 27 -86 4 -118 -21 -30 -77 -30 -98 0 -26 37 -16
108 18 130 20 14 56 8 76 -12z m-180 -170 c29 -29 27 -100 -3 -136 -44 -51
-102 -7 -102 76 0 70 61 104 105 60z m-810 -469 c0 -44 -10 -55 -40 -46 -31
10 -36 46 -10 67 36 29 50 23 50 -21z" />
    <path d="M4213 10015 c-41 -18 -41 -30 -2 -54 43 -26 61 -17 57 27 -4 42 -12
46 -55 27z" />
    <path d="M4569 10012 c-14 -12 -20 -25 -16 -36 9 -22 48 -37 65 -24 17 15 15
65 -4 72 -21 8 -19 9 -45 -12z" />
    <path d="M4962 10018 c-24 -24 -4 -88 28 -88 14 0 40 30 40 46 0 44 -41 69
-68 42z" />
    <path d="M6930 9985 c41 -42 45 -44 52 -25 8 22 1 51 -16 62 -6 4 -27 8 -46 8
l-34 0 44 -45z" />
    <path d="M7692 10018 c-25 -25 -10 -76 23 -79 54 -5 73 18 55 67 -10 27 -56
34 -78 12z" />
    <path d="M8108 10014 c-36 -19 -35 -30 4 -54 40 -24 60 -11 56 34 -3 36 -21
42 -60 20z" />
    <path d="M8900 10015 c-15 -18 -4 -51 19 -58 35 -9 55 35 29 61 -16 16 -33 15
-48 -3z" />
    <path d="M3614 9850 c-44 -17 -36 -84 9 -78 17 2 23 11 25 37 4 40 -6 52 -34
41z" />
    <path d="M3218 9826 c-24 -18 -39 -63 -32 -92 7 -26 48 -64 70 -64 23 0 64 44
70 77 5 27 1 37 -24 63 -33 32 -57 37 -84 16z" />
    <path d="M8310 9821 c-15 -29 -2 -51 30 -51 20 0 31 6 35 20 14 43 -44 69 -65
31z" />
    <path d="M9505 9815 c-17 -16 -25 -35 -25 -60 0 -41 36 -85 70 -85 34 0 70 44
70 85 0 41 -36 85 -70 85 -11 0 -32 -11 -45 -25z" />
    <path d="M8707 9802 c-22 -24 -21 -32 2 -32 21 0 33 21 22 39 -5 8 -12 6 -24
-7z" />
    <path d="M9113 9793 c-21 -8 -15 -38 13 -64 25 -24 26 -24 40 -5 34 47 -1 91
-53 69z" />
    <path d="M2596 9651 c-54 -60 -33 -161 35 -161 41 0 59 24 59 79 0 80 -53 127
-94 82z" />
    <path d="M2956 9645 c-44 -48 -42 -112 6 -148 32 -24 63 -16 83 23 26 50 15
107 -24 137 -24 19 -40 16 -65 -12z" />
    <path d="M9685 9645 c-28 -27 -33 -80 -14 -118 16 -29 28 -37 61 -37 55 0 77
84 38 148 -24 39 -52 41 -85 7z" />
    <path d="M10119 9651 c-30 -24 -33 -109 -4 -141 22 -24 67 -26 89 -4 24 23 21
105 -5 138 -24 31 -48 33 -80 7z" />
    <path d="M8928 9632 c-8 -28 10 -52 37 -52 32 0 31 10 -4 44 -26 25 -29 26
-33 8z" />
    <path d="M9284 9599 c-8 -14 14 -56 34 -64 32 -12 56 37 30 63 -15 15 -55 16
-64 1z" />
    <path d="M2415 9455 c-31 -30 -32 -73 -4 -109 17 -22 28 -27 58 -24 l36 3 3
63 c2 38 -2 69 -9 78 -18 22 -57 17 -84 -11z" />
    <path d="M9846 9458 c-25 -35 -21 -103 6 -122 27 -19 69 -21 86 -4 18 18 15
113 -4 132 -23 24 -70 20 -88 -6z" />
    <path d="M10300 9471 c-20 -13 -20 -111 -1 -134 8 -11 28 -17 51 -17 35 0 39
3 50 35 13 38 6 88 -14 104 -19 16 -69 23 -86 12z" />
    <path d="M2168 9293 c-44 -51 -49 -103 -13 -138 30 -31 58 -32 86 -4 18 18 20
30 17 70 -8 76 -54 113 -90 72z" />
    <path d="M1794 9279 c-21 -23 -24 -82 -5 -117 6 -12 23 -25 38 -28 59 -15 100
99 53 146 -26 26 -62 25 -86 -1z" />
    <path d="M10829 9279 c-17 -17 -20 -30 -16 -66 12 -107 110 -112 124 -6 10 74
-60 120 -108 72z" />
    <path d="M10065 9230 c-19 -31 43 -166 102 -222 42 -40 101 -73 151 -83 l32
-7 0 49 c0 60 -39 131 -104 191 -70 64 -163 101 -181 72z" />
    <path d="M10502 9204 c-12 -8 -22 -22 -22 -29 0 -14 48 -45 70 -45 14 0 13 63
-2 78 -15 15 -19 15 -46 -4z" />
    <path d="M10679 9019 c-22 -22 -21 -37 3 -52 27 -17 48 -1 48 38 0 41 -19 46
-51 14z" />
    <path d="M1615 9005 c-50 -49 -20 -155 44 -155 64 0 92 101 42 154 -31 33 -55
33 -86 1z" />
    <path d="M11264 8815 c-21 -21 -24 -31 -19 -58 10 -44 42 -77 76 -77 55 0 79
82 38 134 -26 33 -62 34 -95 1z" />
    <path d="M10873 8784 c-6 -17 33 -64 54 -64 22 0 38 46 23 65 -16 20 -69 20
-77 -1z" />
    <path d="M1176 8645 c-20 -31 -21 -104 0 -133 27 -39 82 -24 110 29 19 38 12
73 -23 105 -33 31 -66 31 -87 -1z" />
    <path d="M11451 8644 c-57 -72 20 -198 82 -135 17 16 22 34 22 70 0 83 -60
121 -104 65z" />
    <path d="M11067 8623 c-16 -15 -6 -63 14 -73 38 -21 69 36 37 68 -13 13 -41
16 -51 5z" />
    <path d="M1020 8480 c-31 -7 -48 -62 -34 -112 9 -30 14 -33 53 -36 55 -4 71
10 71 62 0 67 -34 100 -90 86z" />
    <path d="M11624 8455 c-24 -36 -21 -95 6 -117 30 -25 86 -24 100 1 17 33 12
95 -10 119 -29 31 -75 29 -96 -3z" />
    <path d="M11260 8364 l45 -45 3 31 c5 50 -3 60 -50 60 l-42 0 44 -46z" />
    <path d="M11459 8204 c-20 -24 1 -49 42 -49 25 0 35 5 37 18 8 41 -51 64 -79
31z" />
    <path d="M629 8003 c-12 -31 -4 -100 13 -120 18 -23 65 -15 87 13 46 58 15
134 -54 134 -29 0 -37 -5 -46 -27z" />
    <path d="M11670 8001 c0 -23 14 -41 31 -41 24 0 24 12 1 33 -21 19 -32 22 -32
8z" />
    <path d="M11857 7804 c-12 -12 -8 -41 8 -54 24 -20 67 3 63 33 -2 16 -11 23
-33 25 -17 2 -34 0 -38 -4z" />
    <path d="M12060 7655 c-15 -19 -8 -119 11 -141 7 -9 25 -14 43 -12 24 2 35 11
47 36 20 38 11 99 -17 119 -24 18 -69 16 -84 -2z" />
    <path d="M12236 7472 c-3 -5 -8 -26 -12 -48 -8 -53 23 -94 71 -94 21 0 35 6
39 16 10 27 6 110 -6 122 -14 14 -84 16 -92 4z" />
    <path d="M11852 7398 c-7 -7 -12 -21 -12 -33 0 -29 19 -45 52 -45 36 0 56 36
39 69 -13 23 -59 29 -79 9z" />
    <path d="M12067 7172 c-33 -35 -34 -42 -2 -42 28 0 50 32 37 55 -7 13 -13 10
-35 -13z" />
    <path d="M12244 7025 c-9 -13 -18 -42 -21 -64 -5 -33 -1 -44 20 -65 32 -32 60
-33 88 -5 18 18 20 30 17 70 -8 82 -68 119 -104 64z" />
    <path d="M12020 6800 c-13 -9 -11 -14 13 -35 34 -30 53 -32 67 -6 19 37 -40
67 -80 41z" />
    <path d="M12474 6797 c-6 -16 12 -67 24 -67 20 0 52 33 52 56 0 21 -5 24 -35
24 -20 0 -38 -6 -41 -13z" />
    <path d="M34 6662 c-42 -28 -40 -108 3 -142 33 -26 39 -25 68 5 28 27 33 76
13 120 -8 19 -19 25 -42 25 -17 0 -36 -4 -42 -8z" />
    <path d="M12278 6589 c-26 -15 -22 -46 8 -65 32 -21 47 -8 42 37 -3 36 -21 46
-50 28z" />
    <path d="M12458 6412 c-30 -6 -31 -35 -3 -59 34 -30 53 -29 61 2 11 44 -12 67
-58 57z" />
    <path d="M12276 6218 c-21 -30 -20 -45 5 -58 29 -16 51 5 47 44 -4 38 -30 46
-52 14z" />
    <path d="M22 6208 c-15 -15 -16 -102 -2 -129 12 -22 57 -26 84 -6 14 10 16 25
14 77 l-3 65 -40 3 c-23 2 -46 -3 -53 -10z" />
    <path d="M12480 5995 c-26 -32 13 -81 48 -59 21 14 28 54 10 65 -20 13 -44 11
-58 -6z" />
    <path d="M26 5854 c-22 -21 -22 -117 0 -138 18 -18 33 -20 68 -6 24 9 26 14
26 75 0 61 -2 66 -26 75 -35 14 -50 12 -68 -6z" />
    <path d="M12245 5856 c-28 -20 -28 -122 0 -143 22 -16 74 -10 87 10 10 15 10
108 0 123 -12 20 -66 26 -87 10z" />
    <path d="M12689 5849 c-18 -18 -20 -30 -16 -67 6 -51 33 -82 72 -82 31 0 47
22 52 73 9 78 -58 126 -108 76z" />
    <path d="M12431 5674 c-26 -33 -29 -114 -5 -138 22 -22 67 -20 90 5 38 42 9
149 -43 157 -13 2 -29 -7 -42 -24z" />
    <path d="M12281 5411 c-25 -25 -26 -35 -5 -55 19 -19 26 -20 42 -4 16 16 15
53 -2 67 -12 10 -19 8 -35 -8z" />
    <path d="M203 5223 c-7 -2 -17 -22 -23 -43 -18 -67 17 -115 78 -108 26 3 27 5
30 71 3 64 2 68 -23 77 -28 11 -43 11 -62 3z" />
    <path d="M12062 5194 c-34 -40 -34 -55 -1 -47 29 8 53 48 41 68 -8 15 -13 12
-40 -21z" />
    <path d="M12426 5214 c-18 -18 -22 -95 -6 -125 14 -25 60 -25 91 0 29 24 31
91 4 121 -22 24 -68 26 -89 4z" />
    <path d="M12248 5043 c-25 -28 -30 -58 -18 -103 13 -49 49 -77 78 -61 37 20
56 119 30 154 -20 26 -70 32 -90 10z" />
    <path d="M12092 4778 c-20 -20 -14 -48 13 -60 34 -15 61 8 51 46 -7 28 -42 36
-64 14z" />
    <path d="M386 4687 c-12 -9 -20 -31 -24 -65 -6 -65 15 -102 57 -102 52 0 82
61 61 125 -17 51 -57 69 -94 42z" />
    <path d="M12276 4594 c-21 -21 -20 -37 4 -59 16 -15 22 -15 35 -5 18 15 20 51
3 68 -16 16 -23 15 -42 -4z" />
    <path d="M12066 4404 c-16 -16 -21 -70 -10 -111 8 -28 64 -49 92 -34 25 13 37
75 22 112 -7 16 -24 32 -42 38 -40 14 -44 14 -62 -5z" />
    <path d="M603 4369 c-14 -14 0 -50 27 -67 35 -21 68 36 38 66 -15 15 -50 16
-65 1z" />
    <path d="M776 4175 c-6 -18 12 -52 31 -59 18 -7 37 1 51 24 19 31 5 50 -38 50
-25 0 -40 -5 -44 -15z" />
    <path d="M11845 4180 c-17 -28 27 -76 58 -64 22 8 38 49 24 63 -14 14 -74 15
-82 1z" />
    <path d="M992 4048 c-24 -24 -9 -131 21 -150 67 -43 134 84 74 140 -25 24 -76
29 -95 10z" />
    <path d="M11630 4040 c-14 -14 -20 -33 -20 -63 0 -91 96 -120 129 -39 9 21 9
36 1 58 -25 64 -71 83 -110 44z" />
    <path d="M1203 3785 c-30 -21 -29 -53 2 -67 34 -15 57 5 53 46 -3 36 -23 43
-55 21z" />
    <path d="M11482 3784 c-30 -20 -28 -52 3 -66 36 -16 63 10 49 49 -11 33 -23
37 -52 17z" />
    <path d="M11271 3584 c-32 -41 -31 -96 2 -131 45 -50 107 -14 107 61 0 52 -30
96 -65 96 -14 0 -32 -11 -44 -26z" />
    <path d="M1405 3551 c-9 -28 12 -73 32 -69 23 4 48 50 40 71 -9 24 -64 23 -72
-2z" />
    <path d="M11090 3405 c-21 -25 -18 -99 4 -124 19 -21 51 -27 72 -13 37 24 45
101 14 132 -24 24 -72 26 -90 5z" />
    <path d="M1570 3357 c0 -26 28 -57 52 -57 18 0 40 44 32 65 -4 10 -20 15 -45
15 -34 0 -39 -3 -39 -23z" />
    <path d="M10698 3375 c-9 -9 11 -61 28 -76 21 -17 56 17 52 50 -3 22 -9 26
-38 29 -20 2 -39 0 -42 -3z" />
    <path d="M10878 3192 c-17 -7 -16 -9 2 -40 24 -40 56 -42 72 -6 11 22 10 28
-7 40 -20 15 -40 17 -67 6z" />
    <path d="M1823 3155 c-31 -22 -29 -53 3 -65 35 -14 56 4 52 44 -3 36 -23 43
-55 21z" />
    <path d="M10495 3146 c-28 -28 -26 -43 9 -56 34 -12 58 6 54 43 -4 41 -30 46
-63 13z" />
    <path d="M10652 3048 c-15 -15 -16 -92 -2 -119 7 -13 21 -19 44 -19 57 0 87
55 62 114 -14 32 -19 36 -53 36 -22 0 -44 -5 -51 -12z" />
    <path d="M1989 2969 c-16 -31 4 -71 34 -67 16 2 23 11 25 31 6 51 -37 77 -59
36z" />
    <path d="M2380 2983 c0 -10 52 -63 62 -63 12 0 9 45 -4 58 -13 13 -58 17 -58
5z" />
    <path d="M2172 2788 c-18 -18 -14 -45 9 -62 25 -17 46 -12 54 15 14 42 -33 77
-63 47z" />
    <path d="M9691 2786 c-14 -16 -4 -43 23 -66 19 -15 41 -1 49 31 10 38 -47 66
-72 35z" />
    <path d="M10146 2785 c-9 -9 -16 -23 -16 -30 0 -15 27 -45 39 -45 17 0 32 30
29 57 -4 33 -28 41 -52 18z" />
    <path d="M10470 2758 c-24 -39 -25 -60 -5 -97 23 -45 85 -58 105 -22 17 33 12
96 -11 125 -29 37 -64 34 -89 -6z" />
    <path d="M2597 2752 c-33 -34 -34 -42 -4 -42 27 0 47 17 47 41 0 30 -16 30
-43 1z" />
    <path d="M9502 2576 c-35 -41 -34 -56 4 -56 29 0 50 43 37 73 -8 18 -12 16
-41 -17z" />
    <path d="M10290 2590 c-18 -34 -6 -121 20 -142 59 -49 134 69 83 131 -10 12
-34 24 -55 27 -31 5 -38 3 -48 -16z" />
    <path d="M9905 2577 c-10 -25 13 -57 40 -57 33 0 31 10 -5 45 -24 23 -30 25
-35 12z" />
    <path d="M2366 2562 c-9 -15 26 -72 46 -72 23 0 39 38 26 63 -9 17 -62 24 -72
9z" />
    <path d="M2141 2389 c-16 -47 -14 -73 10 -103 42 -53 101 -20 103 57 1 56 -16
77 -64 77 -34 0 -39 -4 -49 -31z" />
    <path d="M2582 2408 c-17 -17 -15 -83 3 -118 20 -38 66 -42 89 -8 21 29 21
102 0 122 -18 19 -75 21 -92 4z" />
    <path d="M8527 2392 c-33 -35 -34 -42 -2 -42 17 0 29 8 37 25 18 40 -3 50 -35
17z" />
    <path d="M9664 2394 c-8 -33 1 -101 16 -119 18 -22 77 -19 90 4 14 27 13 114
-2 129 -7 7 -31 12 -55 12 -37 0 -43 -3 -49 -26z" />
    <path d="M8942 2381 c-8 -4 -12 -19 -10 -32 4 -34 52 -39 69 -8 10 19 9 25 -7
36 -21 15 -34 16 -52 4z" />
    <path d="M9297 2384 c-12 -12 -8 -41 8 -54 20 -17 47 5 43 34 -3 21 -37 34
-51 20z" />
    <path d="M9523 2250 c-29 -12 -43 -40 -43 -88 0 -41 23 -79 50 -83 58 -6 80
16 80 82 0 40 -5 55 -25 74 -26 27 -30 28 -62 15z" />
    <path d="M2415 2220 c-23 -45 -19 -97 10 -125 31 -32 48 -31 74 1 15 19 21 41
21 75 0 56 -18 79 -60 79 -22 0 -33 -7 -45 -30z" />
    <path d="M8704 2225 c-9 -14 -17 -44 -17 -66 0 -78 81 -118 114 -56 19 34 15
103 -6 127 -26 29 -71 26 -91 -5z" />
    <path d="M9068 2239 c-39 -22 -29 -137 13 -160 67 -35 119 91 63 152 -19 21
-49 24 -76 8z" />
    <path d="M8313 2194 c-8 -21 13 -64 31 -64 18 0 30 33 21 60 -8 24 -43 27 -52
4z" />
    <path d="M2802 2154 c-15 -10 -22 -24 -20 -37 2 -18 10 -22 38 -22 33 0 35 2
35 35 0 40 -18 49 -53 24z" />
    <path d="M7936 2157 c-11 -8 -17 -23 -14 -38 4 -33 52 -40 68 -9 24 45 -13 77
-54 47z" />
    <path d="M8862 2035 c-18 -39 -14 -79 9 -109 42 -54 114 -21 114 54 0 52 -27
80 -75 80 -30 0 -39 -5 -48 -25z" />
    <path d="M2610 1966 c-12 -32 -4 -53 22 -62 28 -8 40 7 36 47 -2 26 -8 35 -25
37 -17 3 -26 -3 -33 -22z" />
    <path d="M6957 1972 c-22 -25 -21 -38 5 -56 32 -23 60 -4 56 37 -4 38 -35 48
-61 19z" />
    <path d="M7309 1972 c-21 -18 -22 -23 -11 -47 9 -19 18 -25 35 -23 18 2 22 9
22 42 0 46 -13 54 -46 28z" />
    <path d="M7750 1969 c-17 -31 2 -71 33 -67 19 3 22 9 22 43 0 33 -4 41 -22 43
-14 2 -26 -4 -33 -19z" />
    <path d="M8101 1964 c-11 -15 -21 -30 -21 -34 0 -16 30 -31 57 -28 25 3 28 7
28 43 0 33 -4 41 -21 43 -14 2 -29 -7 -43 -24z" />
    <path d="M8537 1973 c-24 -27 -30 -68 -17 -108 30 -90 120 -61 120 39 0 67
-65 110 -103 69z" />
    <path d="M6329 1791 l-24 -21 29 -25 c40 -37 61 -30 61 20 0 33 -4 41 -21 43
-11 2 -32 -6 -45 -17z" />
    <path d="M2410 1781 c-13 -25 -13 -97 0 -122 12 -22 68 -27 88 -7 7 7 12 37
12 68 0 31 -5 61 -12 68 -20 20 -76 15 -88 -7z" />
    <path d="M5950 1755 l-44 -45 42 0 c44 0 62 17 62 59 0 35 -16 31 -60 -14z" />
    <path d="M6760 1790 c-19 -12 -20 -111 -1 -134 8 -9 29 -16 51 -16 30 0 39 5
48 25 17 36 15 86 -4 113 -16 23 -66 30 -94 12z" />
    <path d="M7101 1774 c-59 -75 33 -180 99 -114 27 27 27 89 0 118 -29 31 -73
29 -99 -4z" />
    <path d="M7914 1792 c-37 -24 -45 -101 -14 -132 23 -23 82 -27 97 -7 30 37 19
118 -17 137 -22 12 -51 13 -66 2z" />
    <path d="M7507 1743 c-12 -19 18 -58 43 -58 21 0 25 5 25 30 0 26 -4 30 -32
33 -17 2 -34 -1 -36 -5z" />
    <path d="M6146 1611 c-40 -44 -23 -161 24 -161 35 0 58 18 70 55 13 40 6 70
-23 103 -25 27 -48 28 -71 3z" />
    <path d="M6480 1598 c-28 -46 -26 -93 5 -123 30 -31 58 -32 86 -4 18 18 20 30
17 70 -9 88 -70 120 -108 57z" />
    <path d="M5737 1563 c-7 -12 8 -47 28 -63 15 -13 19 -12 31 5 24 32 14 60 -23
63 -17 2 -33 -1 -36 -5z" />
    <path d="M2425 1415 c-19 -18 -25 -35 -25 -65 0 -63 55 -109 98 -82 38 24 31
128 -11 157 -29 20 -34 19 -62 -10z" />
    <path d="M5973 1428 c-27 -13 -44 -59 -36 -99 6 -32 45 -69 73 -69 52 0 71
110 25 155 -27 28 -30 28 -62 13z" />
    <path d="M5541 1341 c-28 -21 -24 -41 12 -60 39 -21 59 -8 55 36 -4 45 -29 54
-67 24z" />
    <path d="M5742 1207 c-8 -10 -6 -21 8 -45 11 -18 23 -32 28 -32 15 0 32 24 32
45 0 40 -45 60 -68 32z" />
    <path d="M5357 1164 c-12 -12 -8 -51 8 -64 26 -22 50 -8 50 30 0 30 -4 35 -25
38 -14 2 -29 0 -33 -4z" />
    <path d="M5511 976 c-62 -74 6 -202 78 -148 39 29 42 110 5 146 -19 20 -68 21
-83 2z" />
    <path d="M5157 942 c-33 -35 -34 -42 -2 -42 17 0 29 8 37 25 18 40 -3 50 -35
17z" />
    <path d="M5363 799 c-69 -25 -50 -159 22 -159 35 0 65 37 65 80 0 61 -39 97
-87 79z" />
    <path d="M4599 774 c-3 -46 9 -64 44 -64 26 0 21 23 -13 55 -27 26 -30 27 -31
9z" />
    <path d="M4945 756 c-18 -13 -18 -15 -2 -40 22 -33 54 -34 69 -1 20 44 -25 72
-67 41z" />
    <path d="M4388 626 c-22 -16 -38 -59 -38 -99 0 -40 9 -54 40 -65 76 -28 120
89 58 155 -24 26 -36 28 -60 9z" />
    <path d="M5183 628 c-51 -25 -50 -130 2 -164 67 -44 121 91 60 151 -27 28 -30
28 -62 13z" />
    <path d="M3960 562 c0 -24 28 -62 45 -62 8 0 22 11 31 25 22 33 5 55 -42 55
-26 0 -34 -4 -34 -18z" />
    <path d="M4773 569 c-25 -25 27 -82 57 -64 14 9 13 48 -2 63 -15 15 -41 15
-55 1z" />
    <path d="M3590 525 c-20 -24 3 -67 33 -63 18 2 22 9 22 38 0 28 -4 36 -21 38
-11 2 -27 -4 -34 -13z" />
    <path d="M4539 429 c-18 -18 -21 -30 -17 -71 6 -56 11 -63 53 -72 43 -9 66 11
72 65 9 80 -58 128 -108 78z" />
    <path d="M3417 352 c-24 -26 -21 -59 4 -67 32 -10 43 8 40 63 -1 27 -22 29
-44 4z" />
    <path d="M3766 351 c-32 -35 3 -82 48 -65 13 5 16 16 14 43 -4 43 -33 54 -62
22z" />
    <path d="M4213 349 c-18 -12 -33 -25 -33 -29 0 -15 60 -52 75 -46 19 7 21 96
3 96 -7 0 -28 -10 -45 -21z" />
    <path d="M3947 174 c-53 -28 -65 -107 -22 -149 31 -32 58 -32 84 1 25 32 27
74 5 119 -19 41 -32 47 -67 29z" />
    <path d="M3573 162 c-39 -25 -36 -110 5 -142 32 -26 38 -25 67 5 47 47 25 145
-33 145 -15 0 -32 -4 -39 -8z" />
  </g>
</svg>