<svg id="visual" viewBox="0 0 900 600" width="900" height="600" xmlns="http://www.w3.org/2000/svg"
  xmlns:xlink="http://www.w3.org/1999/xlink" version="1.1">
  <rect x="0" y="0" width="900" height="600" fill="#18181b"></rect>
  <path
    d="M87 0L204 0L204 35L264 35L264 71L189 71L189 106L282 106L282 141L57 141L57 176L248 176L248 212L324 212L324 247L188 247L188 282L355 282L355 318L205 318L205 353L157 353L157 388L162 388L162 424L46 424L46 459L159 459L159 494L201 494L201 529L171 529L171 565L225 565L225 600L0 600L0 565L0 565L0 529L0 529L0 494L0 494L0 459L0 459L0 424L0 424L0 388L0 388L0 353L0 353L0 318L0 318L0 282L0 282L0 247L0 247L0 212L0 212L0 176L0 176L0 141L0 141L0 106L0 106L0 71L0 71L0 35L0 35L0 0L0 0Z"
    fill="#1e1e22"></path>
  <path
    d="M61 0L191 0L191 35L87 35L87 71L217 71L217 106L286 106L286 141L205 141L205 176L99 176L99 212L7 212L7 247L297 247L297 282L240 282L240 318L5 318L5 353L63 353L63 388L252 388L252 424L95 424L95 459L98 459L98 494L41 494L41 529L141 529L141 565L253 565L253 600L0 600L0 565L0 565L0 529L0 529L0 494L0 494L0 459L0 459L0 424L0 424L0 388L0 388L0 353L0 353L0 318L0 318L0 282L0 282L0 247L0 247L0 212L0 212L0 176L0 176L0 141L0 141L0 106L0 106L0 71L0 71L0 35L0 35L0 0L0 0Z"
    fill="#222226"></path>
  <path
    d="M125 0L21 0L21 35L228 35L228 71L204 71L204 106L147 106L147 141L133 141L133 176L131 176L131 212L37 212L37 247L6 247L6 282L182 282L182 318L16 318L16 353L258 353L258 388L238 388L238 424L144 424L144 459L11 459L11 494L274 494L274 529L21 529L21 565L58 565L58 600L0 600L0 565L0 565L0 529L0 529L0 494L0 494L0 459L0 459L0 424L0 424L0 388L0 388L0 353L0 353L0 318L0 318L0 282L0 282L0 247L0 247L0 212L0 212L0 176L0 176L0 141L0 141L0 106L0 106L0 71L0 71L0 35L0 35L0 0L0 0Z"
    fill="#25262a"></path>
  <path
    d="M91 0L24 0L24 35L197 35L197 71L66 71L66 106L183 106L183 141L66 141L66 176L113 176L113 212L166 212L166 247L146 247L146 282L8 282L8 318L141 318L141 353L37 353L37 388L3 388L3 424L121 424L121 459L48 459L48 494L137 494L137 529L58 529L58 565L14 565L14 600L0 600L0 565L0 565L0 529L0 529L0 494L0 494L0 459L0 459L0 424L0 424L0 388L0 388L0 353L0 353L0 318L0 318L0 282L0 282L0 247L0 247L0 212L0 212L0 176L0 176L0 141L0 141L0 106L0 106L0 71L0 71L0 35L0 35L0 0L0 0Z"
    fill="#292b2e"></path>
  <path
    d="M88 0L168 0L168 35L185 35L185 71L95 71L95 106L44 106L44 141L89 141L89 176L110 176L110 212L72 212L72 247L12 247L12 282L188 282L188 318L154 318L154 353L85 353L85 388L47 388L47 424L162 424L162 459L37 459L37 494L168 494L168 529L132 529L132 565L96 565L96 600L0 600L0 565L0 565L0 529L0 529L0 494L0 494L0 459L0 459L0 424L0 424L0 388L0 388L0 353L0 353L0 318L0 318L0 282L0 282L0 247L0 247L0 212L0 212L0 176L0 176L0 141L0 141L0 106L0 106L0 71L0 71L0 35L0 35L0 0L0 0Z"
    fill="#2d2f32"></path>
  <path
    d="M48 0L101 0L101 35L153 35L153 71L58 71L58 106L109 106L109 141L31 141L31 176L44 176L44 212L33 212L33 247L150 247L150 282L156 282L156 318L139 318L139 353L14 353L14 388L86 388L86 424L156 424L156 459L129 459L129 494L129 494L129 529L27 529L27 565L82 565L82 600L0 600L0 565L0 565L0 529L0 529L0 494L0 494L0 459L0 459L0 424L0 424L0 388L0 388L0 353L0 353L0 318L0 318L0 282L0 282L0 247L0 247L0 212L0 212L0 176L0 176L0 141L0 141L0 106L0 106L0 71L0 71L0 35L0 35L0 0L0 0Z"
    fill="#323436"></path>
  <path
    d="M69 0L94 0L94 35L62 35L62 71L13 71L13 106L15 106L15 141L22 141L22 176L95 176L95 212L34 212L34 247L41 247L41 282L24 282L24 318L94 318L94 353L114 353L114 388L113 388L113 424L77 424L77 459L119 459L119 494L97 494L97 529L55 529L55 565L110 565L110 600L0 600L0 565L0 565L0 529L0 529L0 494L0 494L0 459L0 459L0 424L0 424L0 388L0 388L0 353L0 353L0 318L0 318L0 282L0 282L0 247L0 247L0 212L0 212L0 176L0 176L0 141L0 141L0 106L0 106L0 71L0 71L0 35L0 35L0 0L0 0Z"
    fill="#36383a"></path>
  <path
    d="M61 0L7 0L7 35L48 35L48 71L55 71L55 106L60 106L60 141L28 141L28 176L69 176L69 212L43 212L43 247L2 247L2 282L66 282L66 318L61 318L61 353L51 353L51 388L8 388L8 424L62 424L62 459L55 459L55 494L26 494L26 529L10 529L10 565L32 565L32 600L0 600L0 565L0 565L0 529L0 529L0 494L0 494L0 459L0 459L0 424L0 424L0 388L0 388L0 353L0 353L0 318L0 318L0 282L0 282L0 247L0 247L0 212L0 212L0 176L0 176L0 141L0 141L0 106L0 106L0 71L0 71L0 35L0 35L0 0L0 0Z"
    fill="#3b3d3e"></path>
</svg>